<?xml version="1.0"?><svg width="1024" height="768" xmlns="http://www.w3.org/2000/svg">
 <title>Polo Shirt sleeves</title>
 <metadata id="metadata7">image/svg+xml</metadata>
 <g>
  <title>Capa 1</title>
  <g id="svg_1">
   <g id="g3341">
    <path id="path3343" fill="#aad4ff" fill-rule="evenodd" stroke="#000000" stroke-miterlimit="4" stroke-width="2" d="m723.307983,24.5156c34.460022,4.9076 63.166992,3.712999 89.501038,0l16.063965,23.5333c69.286987,27.8578 109.437988,24.817898 183.596985,68.165089c-9.549988,34.037018 -11.349976,71.360016 -39.782959,97.379028c-23.713989,-19.761017 -47.42804,-15.580017 -71.142029,-21.910034l0,286.457062c-89.126953,17.207947 -177.584961,21.635956 -264.677979,0l0,-286.457062c-20.625977,2.439011 -37.763977,0.650009 -71.906982,19.476013c-25.629028,-22.675003 -33.629028,-59.893997 -41.308044,-97.379005c79.416016,-37.882401 119.350037,-43.047081 184.356995,-64.108082l15.299011,-25.1563l0,-0.00001z"/>
    <path id="path3347" fill="#aad4ff" fill-rule="evenodd" stroke="#000000" stroke-width="1px" d="m639.161987,72.3937c6.30603,35.845299 19.10199,80.585304 -0.765015,118.478294"/>
    <path id="path3351" fill="#aad4ff" fill-rule="evenodd" stroke="#000000" stroke-width="1px" d="m535.270996,109.525002c4.372986,37.299995 21.960999,67.687996 40.398987,94.329994"/>
    <path id="path3353" fill="#aad4ff" fill-rule="evenodd" stroke="#000000" stroke-width="1px" d="m636.867004,466.778992c87.971008,13.300995 175.942017,18.946014 263.913025,0"/>
    <path id="path3357" fill="#aad4ff" fill-rule="evenodd" stroke="#000000" stroke-width="1px" d="m899.25,71.582199c-6.30603,35.845802 -19.10199,80.5858 0.765015,118.477798"/>
    <path id="path3361" fill="#aad4ff" fill-rule="evenodd" stroke="#000000" stroke-width="1px" d="m1000.219971,111.345001c-4.366943,37.300003 -21.334961,65.056992 -39.772949,91.699005"/>
    <path id="path3363" fill="#aad4ff" fill-rule="evenodd" stroke="#000000" stroke-width="1px" d="m710.015015,51.619598c13.08197,18.232704 96.893982,21.974701 118.133972,-2.631798"/>
   </g>
   <path id="text3471" fill="#aad4ff" stroke-width="1px" d="m222.766998,517.984009l0,9.966003l14.091995,0l0,3.005005l-14.091995,0l0,10.859985l-3.425003,0l0,-26.797974l17.947006,0l0,2.96698l-14.522003,0m18.556,23.830994l0,-15.786011c0,-0.430969 -0.005997,-0.867981 -0.018005,-1.312012c0,-0.455994 -0.005997,-0.893982 -0.01799,-1.311951c-0.012009,-0.419006 -0.024002,-0.812012 -0.035995,-1.180054c-0.011002,-0.367004 -0.02301,-0.69696 -0.035004,-0.988953l3.048004,0c0.010986,0.291992 0.022995,0.627991 0.034988,1.007996c0.024002,0.367981 0.042007,0.748962 0.054001,1.141968c0.024002,0.393005 0.036011,0.77301 0.036011,1.140991c0.011993,0.355042 0.01799,0.658997 0.01799,0.913025l0.072006,0c0.22699,-0.786011 0.466003,-1.465027 0.716995,-2.034973c0.263,-0.584045 0.568008,-1.059021 0.914001,-1.427002c0.347,-0.380005 0.759003,-0.659058 1.237,-0.837036c0.477997,-0.190002 1.057999,-0.284973 1.738998,-0.284973c0.263,0 0.514008,0.024963 0.753006,0.075989c0.238998,0.037964 0.425003,0.075989 0.556,0.114014l0,3.138c-0.215012,-0.063049 -0.466003,-0.106995 -0.753006,-0.132996c-0.287003,-0.038025 -0.608994,-0.057007 -0.968002,-0.057007c-0.740997,0 -1.375,0.177979 -1.899994,0.532959c-0.514008,0.355042 -0.938995,0.848999 -1.272995,1.483032c-0.323013,0.622009 -0.562012,1.369995 -0.718002,2.244995c-0.154999,0.862 -0.233002,1.805969 -0.233002,2.833008l0,10.72699l-3.227005,0m28.597015,-10.307983c0,3.600952 -0.747009,6.282959 -2.241028,8.044983c-1.493988,1.763 -3.663971,2.643982 -6.508972,2.643982c-1.350006,0 -2.557007,-0.216003 -3.621002,-0.646973c-1.064026,-0.43103 -1.966019,-1.090027 -2.707016,-1.978027c-0.729996,-0.886963 -1.291,-1.997009 -1.685989,-3.328003c-0.382004,-1.343994 -0.573013,-2.922974 -0.573013,-4.735962c0,-7.101013 2.89801,-10.651001 8.695023,-10.651001c1.505981,0 2.802979,0.221985 3.890991,0.665955c1.098999,0.444031 1.996002,1.109009 2.688995,1.997009c0.704987,0.887024 1.225006,1.997009 1.559998,3.328003c0.334015,1.332031 0.502014,2.88501 0.502014,4.660034m-3.389008,0c0,-1.598022 -0.119019,-2.916016 -0.358002,-3.955994c-0.227997,-1.040039 -0.567993,-1.869995 -1.022003,-2.492004c-0.442993,-0.621033 -0.985992,-1.052002 -1.631989,-1.29303c-0.64502,-0.252991 -1.374023,-0.380005 -2.187012,-0.380005c-0.825012,0 -1.571991,0.132996 -2.240997,0.398987c-0.65799,0.254028 -1.218994,0.697021 -1.686005,1.331055c-0.466003,0.621948 -0.824005,1.451965 -1.075012,2.491943c-0.238983,1.040039 -0.358994,2.33905 -0.358994,3.899048c0,1.597961 0.132004,2.922974 0.395004,3.974976c0.261993,1.039978 0.621002,1.869995 1.075012,2.492004c0.466003,0.620972 1.009979,1.057983 1.631989,1.312012c0.632996,0.252991 1.321014,0.380005 2.062012,0.380005c0.824005,0 1.570984,-0.119995 2.240997,-0.361023c0.669006,-0.253967 1.237,-0.690979 1.703003,-1.312012c0.466003,-0.622009 0.824982,-1.458984 1.075989,-2.510986c0.251007,-1.052002 0.376007,-2.377014 0.376007,-3.974976m19.73999,10.307983l0,-13.046997c0,-1.002014 -0.071991,-1.838013 -0.214996,-2.51001c-0.131989,-0.671997 -0.352997,-1.210999 -0.664001,-1.617004c-0.309998,-0.417969 -0.722992,-0.709961 -1.237,-0.875c-0.501984,-0.177002 -1.128998,-0.265991 -1.881989,-0.265991c-0.765015,0 -1.458008,0.145996 -2.080017,0.437012c-0.609985,0.278992 -1.135986,0.690979 -1.578003,1.235962c-0.429993,0.53302 -0.764984,1.199036 -1.003998,1.998047c-0.238983,0.78595 -0.358002,1.691956 -0.358002,2.718994l0,11.924988l-3.227997,0l0,-16.184998c0,-0.43103 -0.005981,-0.880981 -0.016998,-1.349976c0,-0.482056 -0.005981,-0.932007 -0.018005,-1.351013c-0.011993,-0.43103 -0.023987,-0.799011 -0.03598,-1.103027c-0.012024,-0.304016 -0.024017,-0.500977 -0.036011,-0.589966l3.048004,0c0.011993,0.063965 0.023987,0.234985 0.036011,0.513977c0.011993,0.278992 0.023987,0.60199 0.03598,0.969971c0.02301,0.355042 0.041016,0.723022 0.053009,1.103027c0.011993,0.367981 0.018005,0.677979 0.018005,0.932007l0.053986,0c0.311005,-0.596008 0.651001,-1.13501 1.022003,-1.617004c0.369995,-0.481018 0.800995,-0.887024 1.291016,-1.21698c0.48999,-0.342041 1.052002,-0.602051 1.684998,-0.780029c0.634003,-0.190002 1.368988,-0.284973 2.204987,-0.284973c1.075989,0 2.002014,0.139954 2.778992,0.419006c0.777008,0.277954 1.417023,0.709961 1.919006,1.292969c0.502014,0.583008 0.865997,1.338013 1.093018,2.263c0.238983,0.913025 0.358978,2.002991 0.358978,3.270996l0,13.713013l-3.244995,0m15.580017,-0.151978c-0.490021,0.139954 -0.992004,0.247986 -1.506012,0.323975c-0.502014,0.088013 -1.088013,0.132996 -1.756989,0.132996c-2.582001,0 -3.873016,-1.554016 -3.873016,-4.659973l0,-13.731995l-2.240997,0l0,-2.492004l2.367004,0l0.949982,-4.602051l2.152008,0l0,4.602051l3.585022,0l0,2.492004l-3.585022,0l0,12.98999c0,0.988953 0.149017,1.687012 0.447998,2.09198c0.311005,0.393005 0.84201,0.590027 1.595001,0.590027c0.311005,0 0.610016,-0.025024 0.897003,-0.07605c0.299011,-0.050964 0.621002,-0.113953 0.968018,-0.190002l0,2.529053"/>
   <path id="text3475" fill="#aad4ff" stroke-width="1px" d="m749.737,534.265015c0,1.355957 -0.250977,2.516968 -0.752991,3.47998c-0.502014,0.950989 -1.177002,1.731018 -2.026001,2.340027c-0.848022,0.596008 -1.833984,1.032959 -2.958008,1.311951c-1.124023,0.279053 -2.307007,0.41803 -3.549988,0.41803l-10.255005,0l0,-26.797974l9.179016,0c1.398987,0 2.647949,0.126953 3.746948,0.380981c1.100037,0.23999 2.032043,0.627014 2.797058,1.159973c0.764954,0.532043 1.344971,1.210999 1.738953,2.035034c0.407043,0.810974 0.610046,1.787964 0.610046,2.928955c0,0.748047 -0.102051,1.452026 -0.305054,2.111023c-0.190979,0.658997 -0.48999,1.262024 -0.895996,1.807007c-0.394958,0.531982 -0.896973,0.994995 -1.505981,1.388c-0.598022,0.380981 -1.296997,0.666016 -2.098022,0.856018c1.016052,0.126953 1.912048,0.373962 2.689026,0.742004c0.789001,0.367981 1.447021,0.836975 1.973022,1.406982c0.526001,0.570984 0.925964,1.235962 1.200989,1.997009c0.274963,0.747986 0.411987,1.559998 0.411987,2.434998m-4.911987,-12.30603c0,-1.445007 -0.466003,-2.479004 -1.398987,-3.099976c-0.932007,-0.621033 -2.28302,-0.932007 -4.052002,-0.932007l-5.755005,0l0,8.482971l5.755005,0c1.003967,0 1.852966,-0.10199 2.545959,-0.304993c0.692993,-0.214966 1.255005,-0.513 1.686035,-0.893005c0.429993,-0.393982 0.740967,-0.862976 0.932007,-1.407959c0.190979,-0.545044 0.286987,-1.160034 0.286987,-1.845032m1.451965,12.02002c0,-0.848999 -0.149963,-1.572021 -0.447998,-2.16803c-0.286987,-0.595947 -0.704956,-1.083984 -1.255005,-1.463989c-0.549988,-0.380981 -1.212952,-0.659973 -1.98999,-0.836975c-0.765015,-0.17804 -1.625977,-0.265991 -2.58197,-0.265991l-6.382996,0l0,9.661011l6.651978,0c0.872009,0 1.672974,-0.07605 2.401978,-0.228027c0.741028,-0.151978 1.375,-0.41803 1.901001,-0.799011c0.538025,-0.380005 0.956055,-0.886963 1.255005,-1.520996c0.298035,-0.633972 0.447998,-1.427002 0.447998,-2.377991m12.78302,8.21698c-1.947998,0 -3.411987,-0.544983 -4.391968,-1.635986c-0.980042,-1.090027 -1.471008,-2.585999 -1.471008,-4.487976c0,-1.356995 0.238953,-2.467041 0.717957,-3.329041c0.490051,-0.875 1.123047,-1.55896 1.900024,-2.053955c0.789001,-0.494019 1.684998,-0.837036 2.689026,-1.027039c1.003967,-0.190002 2.026001,-0.297974 3.065979,-0.322998l4.356995,-0.075989l0,-1.122986c0,-0.848999 -0.083984,-1.572021 -0.250977,-2.16803c-0.167053,-0.596008 -0.424011,-1.076965 -0.770996,-1.445007c-0.347046,-0.367981 -0.78302,-0.633972 -1.309021,-0.79895c-0.514038,-0.17804 -1.122986,-0.266052 -1.828979,-0.266052c-0.621033,0 -1.183044,0.051025 -1.685059,0.152039c-0.501953,0.088989 -0.937988,0.26001 -1.30896,0.513c-0.369995,0.240967 -0.669006,0.576965 -0.895996,1.007996c-0.22699,0.419006 -0.377014,0.950989 -0.447998,1.597961l-3.371033,-0.322998c0.119995,-0.811951 0.347046,-1.553955 0.68103,-2.225952c0.334961,-0.684021 0.807007,-1.274048 1.416992,-1.768005c0.620972,-0.494995 1.391968,-0.875 2.312988,-1.140991c0.932007,-0.279053 2.054993,-0.419006 3.369995,-0.419006c2.439026,0 4.27301,0.596008 5.504028,1.787964c1.230957,1.179016 1.846985,2.890991 1.846985,5.13501l0,8.863037c0,1.013977 0.125977,1.781982 0.377014,2.301941c0.250977,0.507019 0.729004,0.76001 1.43396,0.76001c0.179016,0 0.358032,-0.011963 0.538025,-0.037964c0.179016,-0.025024 0.35199,-0.057007 0.52002,-0.095032l0,2.130005c-0.407043,0.10199 -0.813049,0.17804 -1.220032,0.229004c-0.393982,0.049988 -0.817993,0.075989 -1.271973,0.075989c-0.610046,0 -1.135986,-0.083008 -1.578003,-0.247986c-0.429993,-0.177002 -0.78302,-0.437012 -1.057983,-0.778992c-0.275024,-0.35498 -0.484009,-0.786987 -0.627014,-1.294006c-0.144043,-0.52002 -0.234009,-1.122009 -0.269043,-1.807007l-0.107971,0c-0.346985,0.660034 -0.729004,1.255981 -1.146973,1.788025c-0.407043,0.532959 -0.88501,0.989014 -1.435059,1.369995c-0.549988,0.367004 -1.176941,0.653015 -1.881958,0.85498c-0.694031,0.203003 -1.494019,0.304993 -2.403015,0.304993m0.734985,-2.567993c1.028015,0 1.924988,-0.195984 2.690002,-0.588989c0.777039,-0.406006 1.416016,-0.919983 1.91803,-1.541016c0.513977,-0.620972 0.895996,-1.299988 1.146973,-2.034973c0.251038,-0.734985 0.377014,-1.439026 0.377014,-2.111023l0,-1.692993l-3.531982,0.075989c-0.789001,0.013 -1.541992,0.075989 -2.259033,0.190002c-0.704956,0.10199 -1.326965,0.311035 -1.86499,0.627991c-0.538025,0.317017 -0.968018,0.761047 -1.291016,1.330994c-0.309998,0.571045 -0.466003,1.319031 -0.466003,2.245056c0,1.11499 0.281006,1.977966 0.843018,2.585999c0.574036,0.608948 1.385986,0.912964 2.437988,0.912964m17.212036,-8.19696c0,1.178955 0.078003,2.262939 0.232971,3.251953c0.166992,0.989014 0.442017,1.845032 0.825012,2.567993c0.382019,0.710022 0.883972,1.261047 1.505981,1.654053c0.632996,0.393982 1.410034,0.589966 2.330994,0.589966c1.147034,0 2.103027,-0.330017 2.868042,-0.989014c0.776978,-0.658997 1.255005,-1.674011 1.434998,-3.042969l3.263,0.227966c-0.108032,0.850037 -0.341003,1.66803 -0.700012,2.454041c-0.358032,0.786011 -0.848022,1.47699 -1.470032,2.072998c-0.608948,0.596008 -1.355957,1.078003 -2.240967,1.445007c-0.884033,0.35498 -1.906006,0.532959 -3.065979,0.532959c-1.518005,0 -2.809021,-0.27301 -3.872009,-0.817993c-1.064026,-0.544983 -1.93103,-1.292969 -2.600037,-2.244019c-0.657959,-0.963989 -1.135986,-2.09198 -1.43396,-3.385986c-0.299011,-1.305969 -0.449036,-2.719971 -0.449036,-4.240967c0,-1.382019 0.108032,-2.598999 0.322998,-3.652039c0.215027,-1.065002 0.514038,-1.990967 0.897034,-2.776978c0.393982,-0.797974 0.854004,-1.463989 1.380005,-1.997009c0.526001,-0.544983 1.093994,-0.976013 1.703003,-1.292969c0.621948,-0.330017 1.272949,-0.564026 1.954956,-0.704041c0.68103,-0.151978 1.368042,-0.227966 2.061035,-0.227966c1.088013,0 2.055969,0.158997 2.904968,0.475952c0.848999,0.317017 1.578003,0.754028 2.187012,1.312012c0.622009,0.545044 1.124023,1.192017 1.505981,1.940002c0.382996,0.747986 0.652039,1.55304 0.807007,2.415039l-3.316956,0.266968c-0.167053,-1.141968 -0.591003,-2.047974 -1.27301,-2.719971c-0.68103,-0.671997 -1.649048,-1.007996 -2.903992,-1.007996c-0.921021,0 -1.692017,0.164978 -2.313049,0.493958c-0.609985,0.317017 -1.105957,0.804993 -1.487976,1.465027c-0.382996,0.645996 -0.65802,1.463989 -0.825012,2.453003c-0.154968,0.989014 -0.232971,2.148987 -0.232971,3.481018m28.130005,10.383972l-6.562012,-9.39502l-2.366028,2.072998l0,7.322021l-3.22699,0l0,-28.223999l3.22699,0l0,17.630981l8.515991,-9.985962l3.78302,0l-7.870972,8.843994l8.282959,11.734985l-3.782959,0"/>
   <path id="path3292" fill="#aad4ff" fill-rule="evenodd" stroke="#000000" stroke-miterlimit="4" stroke-width="2" d="m215.371002,22.879101c34.459991,4.907598 63.166992,3.712898 89.501007,0l16.063995,23.533001c69.286987,27.858002 109.437988,24.818001 183.59201,68.165901c-9.54303,34.035995 -11.340027,71.360001 -39.778015,97.378998c-23.713989,-19.761993 -47.428009,-15.580994 -71.141998,-21.910995l0,286.456985c-89.127014,17.209015 -177.585007,21.637024 -264.678009,0l0,-286.456985c-20.625992,2.438995 -37.764595,0.649994 -71.906792,19.475998c-25.629002,-22.673996 -33.629501,-59.893997 -41.308201,-97.379005c79.415501,-37.881897 119.350002,-43.046898 184.357006,-64.107899l15.298996,-25.155998l0,0l0,0l0,0l0,0l0,0z"/>
   <path id="path3296" fill="#aad4ff" fill-rule="evenodd" stroke="#000000" stroke-width="1px" d="m213.841003,27.7616c8.382996,26.1703 20.44899,47.652401 39.013,60.861996l-21.419006,25.156403c-23.660995,-19.271698 -25.002991,-41.174095 -31.362991,-62.4851"/>
   <path id="path3298" fill="#aad4ff" fill-rule="evenodd" stroke="#000000" stroke-width="1px" d="m131.225006,72.3937c6.306,35.845299 19.10199,80.585304 -0.764999,118.478294"/>
   <path id="path3302" fill="#aad4ff" fill-rule="evenodd" stroke="#000000" stroke-width="1px" d="m27.9545,110.182999c4.372499,37.300003 21.339998,67.029999 39.778097,93.671997"/>
   <path id="path3304" fill="#aad4ff" fill-rule="evenodd" stroke="#000000" stroke-width="1px" d="m128.929993,466.778992c87.971008,13.300995 175.942017,18.946014 263.912994,0"/>
   <path id="path3314" fill="#aad4ff" fill-rule="evenodd" stroke="#000000" stroke-width="1px" d="m305.636993,26.138599c-8.382996,26.1703 -20.449005,47.6525 -39.013,60.862003l21.419006,25.156395c23.661011,-19.271698 25.002991,-41.174095 31.363007,-62.485096"/>
   <path id="path3316" fill="#aad4ff" fill-rule="evenodd" stroke="#000000" stroke-width="1px" d="m391.312988,71.582199c-6.306,35.845802 -19.10199,80.5858 0.765015,118.477798"/>
   <path id="path3320" fill="#aad4ff" fill-rule="evenodd" stroke="#000000" stroke-width="1px" d="m492.287994,111.345001c-4.372009,37.300003 -21.339996,65.056992 -39.777985,91.699005"/>
   <path id="path3322" fill="#aad4ff" fill-rule="evenodd" stroke="#000000" stroke-width="1px" d="m223.785995,52.9179c22.654007,-7.513802 45.699997,-6.4557 70.375992,0"/>
   <path id="rect3324" fill="#aad4ff" fill-opacity="0.713208" stroke="#000000" stroke-linecap="round" stroke-miterlimit="4" d="m253.619003,87.812103l11.474991,0l0,75.468903l-11.474991,0l0,-75.468903z"/>
   <text id="svg_4" font-family="Comic Sans MS" font-size="2" fill="#aad4ff" stroke="#000000" stroke-dasharray="null" stroke-linecap="null" stroke-linejoin="null" stroke-width="0" text-anchor="middle" x="670.5901" y="213.8201" xml:space="preserve">0</text>
  </g>
  <text id="svg_6" font-family="Comic Sans MS" font-size="20" fill="#ffff00" stroke="#000000" stroke-dasharray="null" stroke-linecap="null" stroke-linejoin="null" stroke-width="0" text-anchor="middle" transform="matrix(23.1853, 0, 0, 1, -14706.4, 0)" x="668.00003" y="205" xml:space="preserve"/>
  <path id="svg_10" fill="none" stroke="#000000" stroke-dasharray="null" stroke-linecap="null" stroke-linejoin="null" stroke-width="0" d="m20.247789,115.480827c0,0.294983 0,1.179939 0,2.359886c0,2.064888 0.294931,4.010887 0.884951,5.899696c0.621941,1.99099 1.11915,4.155594 1.769911,5.604729c0.54043,1.20343 1.179949,2.359879 1.179949,2.359879c0.58997,1.179932 0.676361,1.388519 0.884951,1.179932c0.834339,-0.834335 -0.014591,-3.833221 -0.294991,-6.48967c-0.31119,-2.948189 -1.17993,-6.489677 -2.06489,-10.029488c-0.58997,-2.359894 -1.714291,-4.16951 -2.35988,-5.014748c-0.566219,-0.741333 -0.58997,-0.884964 -0.58997,-0.884964c-0.294991,0 -0.233,0.02314 -0.589979,0.884964c-0.25242,0.609383 -0.294981,1.474915 -0.294981,2.359879c0,0.884949 0,2.064888 0,3.539818c0,1.474922 0.58997,2.359879 1.179941,3.539818l0.58997,0.589973l0.58997,0.589981l0.58997,0.294975"/>
  <path id="svg_11" fill="none" stroke="#000000" stroke-dasharray="null" stroke-linecap="null" stroke-linejoin="null" stroke-width="0" d="m27.91741,122.265488c-1.3766,0 -1.3766,0 -1.3766,1.409363c0,1.409363 0,4.228119 0,4.228119c0,1.409363 -0.403189,3.231537 -1.3766,4.228119c-0.973389,0.996582 0,1.409363 0,2.818771l-1.3766,0"/>
  <path id="svg_12" fill="none" stroke="#000000" stroke-dasharray="null" stroke-linecap="null" stroke-linejoin="null" stroke-width="0" d="m32.342178,144.684372c0,0.294983 0,0.884949 0,1.474915c0,0.589981 0,1.179947 0,1.47493c0,0.294983 0.294991,0.294983 0.294991,0.589966c0,0.589981 0.099552,1.271393 0.58997,2.064911c0.438641,0.709732 1.166721,1.341919 1.47493,2.359879c0.170952,0.564651 0.454422,1.490707 0.589973,2.064896c0.151539,0.641953 0.294979,0.884949 0.58997,0.884949l0,0.294983l0.294979,0l0.294991,0"/>
  <path id="svg_13" fill="none" stroke="#000000" stroke-dasharray="null" stroke-linecap="null" stroke-linejoin="null" stroke-width="0" d="m33.522129,153.238937c-0.294991,0 -0.589977,0 -0.589977,0c-0.589973,0 -0.971352,-0.086395 -1.179941,-0.294983c-0.417171,-0.417175 -1.179941,0 -1.179941,0c-0.294979,-0.294983 -1.02029,-0.204544 -1.179939,-0.589966c-0.11289,-0.272537 -0.294981,-0.294998 -0.58997,-0.294998l-0.294991,0l0,-0.294983"/>
  <path id="svg_14" fill="none" stroke="#000000" stroke-dasharray="null" stroke-linecap="null" stroke-linejoin="null" stroke-width="0" d="m28.212391,148.51918c0,-0.294998 0,-0.294998 0,-0.589981l-0.294991,-0.294983"/>
  <path id="svg_15" fill="#000000" stroke="#000000" stroke-dasharray="null" stroke-linecap="null" stroke-linejoin="null" stroke-width="0" d="m17.887899,114.301003c1.18,6.195 5.6047,24.778999 5.415901,24.637001c-0.188801,-0.141998 8.448399,26.394989 8.448399,26.394989c0,0 10.619501,24.779007 10.4307,24.638c-0.188801,-0.141998 14.348099,16.955002 14.159302,16.814011c-0.188801,-0.141998 9.923302,-3.694 9.734497,-3.835007c-0.188797,-0.141998 -11.020699,-17.263 -11.2094,-17.403992c-0.188797,-0.141998 -12.495598,-24.34201 -12.684399,-24.484009c-0.188801,-0.141998 -7.480801,-18.737991 -7.669598,-18.878998c-0.188801,-0.141998 -4.826002,-21.391998 -5.014801,-21.533997c-0.188801,-0.141998 -2.171101,-13.133003 -2.359901,-13.274002c-0.1887,-0.141998 -10.430599,0.731003 -9.2507,6.926003l0,0z"/>
  <path id="svg_16" fill="#000000" stroke="#000000" stroke-dasharray="null" stroke-linecap="null" stroke-linejoin="null" stroke-width="0" d="m525.951599,117.727417c1.179993,6.194992 5.604675,24.778992 5.415894,24.636993c-0.188782,-0.141998 8.448425,26.394989 8.448425,26.394989c0,0 10.619446,24.778992 10.430664,24.638c-0.188782,-0.141998 14.348083,16.955017 14.159302,16.814026c-0.188782,-0.142029 9.92334,-3.694031 9.734497,-3.835022c-0.188782,-0.141998 -11.020691,-17.263 -11.209412,-17.403992c-0.188782,-0.141998 -12.495605,-24.34201 -12.684387,-24.484009c-0.188782,-0.141998 -7.480835,-18.737991 -7.669556,-18.878998c-0.188843,-0.141998 -4.82605,-21.391998 -5.014832,-21.533997c-0.188782,-0.141998 -2.171082,-13.132996 -2.359924,-13.274002c-0.188721,-0.141998 -10.430542,0.731003 -9.250671,6.92601z"/>
  <path id="svg_18" fill="#000000" stroke="#000000" stroke-dasharray="null" stroke-linecap="null" stroke-linejoin="null" stroke-width="0" d="m504,114.75l-11.25,-6.75l-5.5,28.75l-6.5,18.5l-11.5,22.25l-12.25,19.75l-5,5.75l12.25,8l13.5,-14.25l10.75,-20.25c0,0 9,-28.75 9,-29c0,-0.25 6.5,-32.75 6.5,-32.75z"/>
  <path id="svg_19" fill="#000000" stroke="#000000" stroke-dasharray="null" stroke-linecap="null" stroke-linejoin="null" stroke-width="0" d="m1012,116.75l-11.25,-6.75l-5.5,28.75l-6.5,18.5l-11.5,22.25l-12.25,19.75l-5,5.75l12.25,8l13.5,-14.25l10.75,-20.25c0,0 9,-28.75 9,-29c0,-0.25 6.5,-32.75 6.5,-32.75z"/>
  <path fill="#000000" stroke="#000000" stroke-width="0" stroke-dasharray="null" stroke-linejoin="null" stroke-linecap="null" d="m200,49c0,0 8,35 8,35c0,0 21,29 21,29c0,0 22,-25 22,-25c0,0 -21,-21 -21,-21c0,0 -12,-24 -12,-24c0,0 -6,-16 -6,-16c0,0 -12,22 -12,22z" id="svg_3"/>
  <path fill="#000000" stroke="#000000" stroke-width="0" stroke-dasharray="null" stroke-linejoin="null" stroke-linecap="null" d="m306,25c0,0 13,21 13,21c0,0 -5,24 -5,24c0,0 -10,25 -10,25c0,0 -15,17 -15,17c0,0 -22,-24 -22,-24c0,0 19,-21 19,-21c0,0 12,-21 12,-21c0,0 8,-21 8,-21z" id="svg_5"/>
  <path fill="#000000" stroke="#000000" stroke-width="0" stroke-dasharray="null" stroke-linejoin="null" stroke-linecap="null" d="m213,28c0,0 8,-5 8,-5c0,0 19,1 19,1c0,0 24,1 24,1c0,0 23,-1 23,-1c0,0 17,0 17,0c0,0 -9,27 -9,27c0,0 -19,-3 -19,-3c0,0 -22,-1 -22,-1c0,0 -18,2 -18,2c0,0 -12,4 -12,4c0,0 -11,-25 -11,-25z" id="svg_8"/>
  <path fill="#000000" stroke="#000000" stroke-width="0" stroke-dasharray="null" stroke-linejoin="null" stroke-linecap="null" d="m254,89c0,0 10,-1 10,-1c0,0 2,74 2,74c0,0 -13,1 -13,1c0,0 1,-74 1,-74z" id="svg_9"/>
  <path fill="#000000" stroke="#000000" stroke-width="0" stroke-dasharray="null" stroke-linejoin="null" stroke-linecap="null" d="m724,25c0,0 25,3 25,3c0,0 30,0 30,0c0,0 33,-4 33,-4c0,0 15,23 15,23c0,0 -8,9 -8,9c0,0 -24,7 -24,7c0,0 -32,3 -32,3c0,0 -33,-4 -33,-4c0,0 -21,-11 -21,-11c0,0 15,-26 15,-26z" id="svg_17"/>
  <rect fill="#7fff00" stroke="#000000" stroke-width="0" stroke-dasharray="null" stroke-linejoin="null" stroke-linecap="null" x="303" y="185" width="28" height="0" id="svg_20"/>
  <text xml:space="preserve" text-anchor="middle" font-family="serif" font-size="24" id="svg_2" y="919.083313" x="1731.883362" opacity="0.5" stroke-linecap="null" stroke-linejoin="null" stroke-dasharray="null" stroke-width="0" stroke="#000000" fill="#000000"/>
  <text xml:space="preserve" text-anchor="middle" font-family="serif" font-size="24" id="svg_7" y="1061.083313" x="1982.766663" opacity="0.5" stroke-linecap="null" stroke-linejoin="null" stroke-dasharray="null" stroke-width="0" stroke="#000000" fill="#000000"/>
 </g>
</svg>